G04 #@! TF.FileFunction,Copper,L1,Top,Signal*
%FSLAX46Y46*%
G04 Gerber Fmt 4.6, Leading zero omitted, Abs format (unit mm)*
G04 Created by KiCad (PCBNEW 4.0.6-e0-6349~53~ubuntu14.04.1) date Sat Apr 22 15:44:28 2017*
%MOMM*%
%LPD*%
G01*
G04 APERTURE LIST*
%ADD10C,0.100000*%
%ADD11R,3.000000X1.400000*%
%ADD12R,4.200000X1.400000*%
%ADD13R,3.400000X1.400000*%
%ADD14R,0.950000X1.250000*%
%ADD15O,0.950000X1.250000*%
%ADD16R,1.500000X1.250000*%
%ADD17R,2.200000X1.600000*%
%ADD18R,3.750000X2.700000*%
%ADD19R,0.560000X1.350000*%
%ADD20R,0.900000X1.200000*%
%ADD21R,1.500000X1.500000*%
%ADD22R,0.800000X0.800000*%
%ADD23R,1.350000X1.850000*%
%ADD24R,1.500000X1.050000*%
%ADD25R,2.250000X1.050000*%
%ADD26R,1.250000X0.650000*%
%ADD27R,1.500000X0.800000*%
%ADD28R,2.000000X1.700000*%
%ADD29R,1.200000X1.000000*%
%ADD30R,1.700000X1.700000*%
%ADD31O,1.700000X1.700000*%
%ADD32R,1.650000X0.400000*%
%ADD33O,1.500000X1.100000*%
%ADD34O,1.700000X1.200000*%
%ADD35R,2.500000X1.430000*%
%ADD36R,3.000000X3.000000*%
%ADD37C,3.000000*%
%ADD38R,1.900000X0.800000*%
%ADD39R,3.350000X1.300000*%
%ADD40R,1.500000X1.300000*%
%ADD41R,2.000000X1.600000*%
%ADD42C,1.000000*%
%ADD43R,1.000000X1.000000*%
%ADD44C,1.800000*%
%ADD45C,2.500000*%
%ADD46R,4.600000X1.100000*%
%ADD47R,9.400000X10.800000*%
%ADD48O,2.500000X0.700000*%
%ADD49R,1.100000X1.100000*%
%ADD50O,0.700000X2.500000*%
%ADD51R,1.560000X0.650000*%
%ADD52R,0.800000X0.200000*%
%ADD53R,0.200000X0.800000*%
%ADD54R,1.200000X1.200000*%
%ADD55R,2.000000X3.800000*%
%ADD56R,2.000000X1.500000*%
%ADD57R,1.500000X0.300000*%
%ADD58R,0.300000X1.500000*%
%ADD59R,0.762000X1.300000*%
%ADD60R,1.500000X3.000000*%
G04 APERTURE END LIST*
D10*
D11*
X174000000Y-82600000D03*
D12*
X156500000Y-82600000D03*
X156500000Y-71700000D03*
D13*
X168500000Y-71700000D03*
D11*
X174000000Y-71700000D03*
D13*
X168500000Y-82600000D03*
D14*
X135800000Y-51800000D03*
D15*
X137050000Y-51800000D03*
D16*
X90950000Y-49300000D03*
X93450000Y-49300000D03*
X164950000Y-95200000D03*
X167450000Y-95200000D03*
X57850000Y-38900000D03*
X60350000Y-38900000D03*
X65550000Y-48300000D03*
X68050000Y-48300000D03*
X65250000Y-55900000D03*
X67750000Y-55900000D03*
X70550000Y-41300000D03*
X73050000Y-41300000D03*
X158250000Y-117900000D03*
X160750000Y-117900000D03*
X140650000Y-179000000D03*
X143150000Y-179000000D03*
X65750000Y-62400000D03*
X68250000Y-62400000D03*
X40750000Y-97700000D03*
X43250000Y-97700000D03*
X41150000Y-105900000D03*
X43650000Y-105900000D03*
X48750000Y-107100000D03*
X51250000Y-107100000D03*
D17*
X93700000Y-77500000D03*
X90700000Y-77500000D03*
D16*
X203950000Y-30100000D03*
X206450000Y-30100000D03*
X197250000Y-27600000D03*
X199750000Y-27600000D03*
X184850000Y-25200000D03*
X187350000Y-25200000D03*
X175050000Y-24000000D03*
X177550000Y-24000000D03*
X193750000Y-22100000D03*
X196250000Y-22100000D03*
X71850000Y-70100000D03*
X74350000Y-70100000D03*
X74750000Y-64000000D03*
X77250000Y-64000000D03*
X57650000Y-59100000D03*
X60150000Y-59100000D03*
X57650000Y-67100000D03*
X60150000Y-67100000D03*
X58650000Y-54300000D03*
X61150000Y-54300000D03*
X45450000Y-92500000D03*
X47950000Y-92500000D03*
X52550000Y-93100000D03*
X55050000Y-93100000D03*
X60250000Y-91400000D03*
X62750000Y-91400000D03*
D17*
X126800000Y-109400000D03*
X123800000Y-109400000D03*
D16*
X128950000Y-32100000D03*
X131450000Y-32100000D03*
X225450000Y-81300000D03*
X227950000Y-81300000D03*
X147251100Y-105003600D03*
X149751100Y-105003600D03*
D17*
X81700000Y-92600000D03*
X78700000Y-92600000D03*
D16*
X147251100Y-105003600D03*
X149751100Y-105003600D03*
D18*
X112425000Y-76400000D03*
X119975000Y-76400000D03*
D16*
X147251100Y-105003600D03*
X149751100Y-105003600D03*
X147251100Y-105003600D03*
X149751100Y-105003600D03*
X147251100Y-105003600D03*
X149751100Y-105003600D03*
X147251100Y-105003600D03*
X149751100Y-105003600D03*
X147251100Y-105003600D03*
X149751100Y-105003600D03*
X147251100Y-105003600D03*
X149751100Y-105003600D03*
X147251100Y-105003600D03*
X149751100Y-105003600D03*
X147251100Y-105003600D03*
X149751100Y-105003600D03*
X147251100Y-105003600D03*
X149751100Y-105003600D03*
X147251100Y-105003600D03*
X149751100Y-105003600D03*
X147251100Y-105003600D03*
X149751100Y-105003600D03*
X147251100Y-105003600D03*
X149751100Y-105003600D03*
X147251100Y-105003600D03*
X149751100Y-105003600D03*
X147251100Y-105003600D03*
X149751100Y-105003600D03*
X147251100Y-105003600D03*
X149751100Y-105003600D03*
X147251100Y-105003600D03*
X149751100Y-105003600D03*
X147251100Y-105003600D03*
X149751100Y-105003600D03*
X147251100Y-105003600D03*
X149751100Y-105003600D03*
X147251100Y-105003600D03*
X149751100Y-105003600D03*
X147251100Y-105003600D03*
X149751100Y-105003600D03*
X147251100Y-105003600D03*
X149751100Y-105003600D03*
X147251100Y-105003600D03*
X149751100Y-105003600D03*
X147251100Y-105003600D03*
X149751100Y-105003600D03*
X147251100Y-105003600D03*
X149751100Y-105003600D03*
X147251100Y-105003600D03*
X149751100Y-105003600D03*
X147251100Y-105003600D03*
X149751100Y-105003600D03*
X147251100Y-105003600D03*
X149751100Y-105003600D03*
X147251100Y-105003600D03*
X149751100Y-105003600D03*
X147251100Y-105003600D03*
X149751100Y-105003600D03*
X147251100Y-105003600D03*
X149751100Y-105003600D03*
X147251100Y-105003600D03*
X149751100Y-105003600D03*
X147251100Y-105003600D03*
X149751100Y-105003600D03*
X147251100Y-105003600D03*
X149751100Y-105003600D03*
X147251100Y-105003600D03*
X149751100Y-105003600D03*
X147251100Y-105003600D03*
X149751100Y-105003600D03*
X147251100Y-105003600D03*
X149751100Y-105003600D03*
X147251100Y-105003600D03*
X149751100Y-105003600D03*
X147251100Y-105003600D03*
X149751100Y-105003600D03*
X147251100Y-105003600D03*
X149751100Y-105003600D03*
X147251100Y-105003600D03*
X149751100Y-105003600D03*
X147251100Y-105003600D03*
X149751100Y-105003600D03*
X147251100Y-105003600D03*
X149751100Y-105003600D03*
X147251100Y-105003600D03*
X149751100Y-105003600D03*
X147251100Y-105003600D03*
X149751100Y-105003600D03*
X147251100Y-105003600D03*
X149751100Y-105003600D03*
X147251100Y-105003600D03*
X149751100Y-105003600D03*
X147251100Y-105003600D03*
X149751100Y-105003600D03*
X147251100Y-105003600D03*
X149751100Y-105003600D03*
X147251100Y-105003600D03*
X149751100Y-105003600D03*
X147251100Y-105003600D03*
X149751100Y-105003600D03*
X147251100Y-105003600D03*
X149751100Y-105003600D03*
D17*
X78100000Y-24500000D03*
X75100000Y-24500000D03*
D18*
X152125000Y-130600000D03*
X159675000Y-130600000D03*
D17*
X95900000Y-25900000D03*
X92900000Y-25900000D03*
X127000000Y-178700000D03*
X124000000Y-178700000D03*
D16*
X147251100Y-105003600D03*
X149751100Y-105003600D03*
X147251100Y-105003600D03*
X149751100Y-105003600D03*
D17*
X78100000Y-55100000D03*
X75100000Y-55100000D03*
D19*
X129250000Y-21450000D03*
X129250000Y-24150000D03*
X130200000Y-21450000D03*
X130200000Y-24150000D03*
X131150000Y-21450000D03*
X131150000Y-24150000D03*
D20*
X56450000Y-98100000D03*
X59750000Y-98100000D03*
X107850000Y-36200000D03*
X111150000Y-36200000D03*
X48050000Y-58700000D03*
X51350000Y-58700000D03*
X146851100Y-105003600D03*
X150151100Y-105003600D03*
X146851100Y-105003600D03*
X150151100Y-105003600D03*
X146851100Y-105003600D03*
X150151100Y-105003600D03*
D21*
X122350000Y-23200000D03*
X119050000Y-23200000D03*
D20*
X146851100Y-105003600D03*
X150151100Y-105003600D03*
D22*
X149301100Y-105003600D03*
X147701100Y-105003600D03*
D20*
X146851100Y-105003600D03*
X150151100Y-105003600D03*
D19*
X140050000Y-21150000D03*
X140050000Y-23850000D03*
X141000000Y-21150000D03*
X141000000Y-23850000D03*
X141950000Y-21150000D03*
X141950000Y-23850000D03*
D20*
X146851100Y-105003600D03*
X150151100Y-105003600D03*
D21*
X117650000Y-30300000D03*
X114350000Y-30300000D03*
X150151100Y-105003600D03*
X146851100Y-105003600D03*
X150151100Y-105003600D03*
X146851100Y-105003600D03*
X150151100Y-105003600D03*
X146851100Y-105003600D03*
X150151100Y-105003600D03*
X146851100Y-105003600D03*
D23*
X149931100Y-105003600D03*
X147071100Y-105003600D03*
D22*
X149301100Y-105003600D03*
X147701100Y-105003600D03*
D21*
X150151100Y-105003600D03*
X146851100Y-105003600D03*
X150151100Y-105003600D03*
X146851100Y-105003600D03*
X150151100Y-105003600D03*
X146851100Y-105003600D03*
D24*
X97700000Y-97500000D03*
D25*
X96075000Y-96025000D03*
X96075000Y-98975000D03*
D24*
X91900000Y-97500000D03*
D25*
X90275000Y-96025000D03*
X90275000Y-98975000D03*
D26*
X250770000Y-54705000D03*
X250770000Y-55975000D03*
X250770000Y-57245000D03*
X250770000Y-58515000D03*
X250770000Y-59785000D03*
X250770000Y-61055000D03*
D27*
X252940000Y-52790000D03*
X254940000Y-52790000D03*
D28*
X264500000Y-52790000D03*
D29*
X263920000Y-56350000D03*
X263920000Y-61430000D03*
D28*
X264500000Y-65000000D03*
D27*
X252940000Y-65000000D03*
X254940000Y-65000000D03*
D30*
X118200000Y-52300000D03*
D31*
X118200000Y-54840000D03*
X118200000Y-57380000D03*
X118200000Y-59920000D03*
D30*
X175500000Y-50200000D03*
D31*
X175500000Y-52740000D03*
X175500000Y-55280000D03*
D26*
X247570000Y-33805000D03*
X247570000Y-35075000D03*
X247570000Y-36345000D03*
X247570000Y-37615000D03*
X247570000Y-38885000D03*
X247570000Y-40155000D03*
D27*
X249740000Y-31890000D03*
X251740000Y-31890000D03*
D28*
X261300000Y-31890000D03*
D29*
X260720000Y-35450000D03*
X260720000Y-40530000D03*
D28*
X261300000Y-44100000D03*
D27*
X249740000Y-44100000D03*
X251740000Y-44100000D03*
D32*
X21900000Y-171800000D03*
X21900000Y-172450000D03*
X21900000Y-173100000D03*
X21900000Y-173750000D03*
X21900000Y-174400000D03*
D33*
X22020000Y-170680000D03*
X22020000Y-175520000D03*
D34*
X19020000Y-170370000D03*
X19020000Y-175830000D03*
D35*
X18780000Y-172140000D03*
X18780000Y-174060000D03*
D36*
X89100000Y-117000000D03*
D37*
X94180000Y-117000000D03*
D30*
X178500000Y-100500000D03*
D31*
X178500000Y-103040000D03*
D30*
X237300000Y-111900000D03*
D31*
X237300000Y-114440000D03*
X237300000Y-116980000D03*
D38*
X261560000Y-140625000D03*
X261560000Y-139375000D03*
X261560000Y-138125000D03*
X261560000Y-136875000D03*
X261560000Y-135625000D03*
X261560000Y-134375000D03*
X261560000Y-133125000D03*
X261560000Y-131875000D03*
X261560000Y-130625000D03*
X261560000Y-129375000D03*
X261560000Y-128125000D03*
X261560000Y-126875000D03*
X261560000Y-125625000D03*
X261560000Y-124375000D03*
X261560000Y-123125000D03*
X261560000Y-121875000D03*
X261560000Y-120625000D03*
X261560000Y-119375000D03*
X261560000Y-118125000D03*
X261560000Y-116875000D03*
X261560000Y-115625000D03*
X261560000Y-114375000D03*
X261560000Y-113125000D03*
X261560000Y-111875000D03*
X261560000Y-110625000D03*
X261560000Y-109375000D03*
X261560000Y-108125000D03*
X261560000Y-106875000D03*
X261560000Y-105625000D03*
X261560000Y-104375000D03*
D39*
X266440000Y-101525000D03*
X266440000Y-143475000D03*
D40*
X147151100Y-105003600D03*
X149851100Y-105003600D03*
X147151100Y-105003600D03*
X149851100Y-105003600D03*
D41*
X146900000Y-104800000D03*
X150900000Y-104800000D03*
X146501100Y-105003600D03*
X150501100Y-105003600D03*
X146501100Y-105003600D03*
X150501100Y-105003600D03*
D42*
X36370000Y-88330000D03*
X37640000Y-89600000D03*
D43*
X35100000Y-89600000D03*
D42*
X67070000Y-105030000D03*
X68340000Y-106300000D03*
D43*
X65800000Y-106300000D03*
D42*
X170270000Y-22930000D03*
X171540000Y-24200000D03*
D43*
X169000000Y-24200000D03*
D42*
X227170000Y-21930000D03*
X228440000Y-23200000D03*
D43*
X225900000Y-23200000D03*
D42*
X90670000Y-84230000D03*
X91940000Y-85500000D03*
D43*
X89400000Y-85500000D03*
D42*
X45570000Y-72130000D03*
X46840000Y-73400000D03*
D43*
X44300000Y-73400000D03*
D42*
X203570000Y-117430000D03*
X204840000Y-118700000D03*
D43*
X202300000Y-118700000D03*
D42*
X150370000Y-96030000D03*
X151640000Y-97300000D03*
D43*
X149100000Y-97300000D03*
D42*
X143870000Y-95830000D03*
X145140000Y-97100000D03*
D43*
X142600000Y-97100000D03*
D42*
X136970000Y-95530000D03*
X138240000Y-96800000D03*
D43*
X135700000Y-96800000D03*
D42*
X156470000Y-95830000D03*
X157740000Y-97100000D03*
D43*
X155200000Y-97100000D03*
D42*
X137170000Y-89030000D03*
X138440000Y-90300000D03*
D43*
X135900000Y-90300000D03*
D42*
X149870000Y-89930000D03*
X151140000Y-91200000D03*
D43*
X148600000Y-91200000D03*
D40*
X147151100Y-105003600D03*
X149851100Y-105003600D03*
X147151100Y-105003600D03*
X149851100Y-105003600D03*
X147151100Y-105003600D03*
X149851100Y-105003600D03*
X147151100Y-105003600D03*
X149851100Y-105003600D03*
X147151100Y-105003600D03*
X149851100Y-105003600D03*
X147151100Y-105003600D03*
X149851100Y-105003600D03*
X147151100Y-105003600D03*
X149851100Y-105003600D03*
X147151100Y-105003600D03*
X149851100Y-105003600D03*
X147151100Y-105003600D03*
X149851100Y-105003600D03*
X147151100Y-105003600D03*
X149851100Y-105003600D03*
X147151100Y-105003600D03*
X149851100Y-105003600D03*
X147151100Y-105003600D03*
X149851100Y-105003600D03*
X147151100Y-105003600D03*
X149851100Y-105003600D03*
X147151100Y-105003600D03*
X149851100Y-105003600D03*
X147151100Y-105003600D03*
X149851100Y-105003600D03*
X147151100Y-105003600D03*
X149851100Y-105003600D03*
X147151100Y-105003600D03*
X149851100Y-105003600D03*
X147151100Y-105003600D03*
X149851100Y-105003600D03*
X147151100Y-105003600D03*
X149851100Y-105003600D03*
X147151100Y-105003600D03*
X149851100Y-105003600D03*
X147151100Y-105003600D03*
X149851100Y-105003600D03*
X147151100Y-105003600D03*
X149851100Y-105003600D03*
X147151100Y-105003600D03*
X149851100Y-105003600D03*
X147151100Y-105003600D03*
X149851100Y-105003600D03*
X147151100Y-105003600D03*
X149851100Y-105003600D03*
X147151100Y-105003600D03*
X149851100Y-105003600D03*
X147151100Y-105003600D03*
X149851100Y-105003600D03*
X147151100Y-105003600D03*
X149851100Y-105003600D03*
X147151100Y-105003600D03*
X149851100Y-105003600D03*
X147151100Y-105003600D03*
X149851100Y-105003600D03*
X147151100Y-105003600D03*
X149851100Y-105003600D03*
X147151100Y-105003600D03*
X149851100Y-105003600D03*
X147151100Y-105003600D03*
X149851100Y-105003600D03*
X147151100Y-105003600D03*
X149851100Y-105003600D03*
X147151100Y-105003600D03*
X149851100Y-105003600D03*
X147151100Y-105003600D03*
X149851100Y-105003600D03*
X147151100Y-105003600D03*
X149851100Y-105003600D03*
X147151100Y-105003600D03*
X149851100Y-105003600D03*
X147151100Y-105003600D03*
X149851100Y-105003600D03*
X147151100Y-105003600D03*
X149851100Y-105003600D03*
X147151100Y-105003600D03*
X149851100Y-105003600D03*
X147151100Y-105003600D03*
X149851100Y-105003600D03*
X147151100Y-105003600D03*
X149851100Y-105003600D03*
X147151100Y-105003600D03*
X149851100Y-105003600D03*
X147151100Y-105003600D03*
X149851100Y-105003600D03*
X147151100Y-105003600D03*
X149851100Y-105003600D03*
X147151100Y-105003600D03*
X149851100Y-105003600D03*
X147151100Y-105003600D03*
X149851100Y-105003600D03*
X147151100Y-105003600D03*
X149851100Y-105003600D03*
X147151100Y-105003600D03*
X149851100Y-105003600D03*
X147151100Y-105003600D03*
X149851100Y-105003600D03*
X147151100Y-105003600D03*
X149851100Y-105003600D03*
X147151100Y-105003600D03*
X149851100Y-105003600D03*
X147151100Y-105003600D03*
X149851100Y-105003600D03*
X147151100Y-105003600D03*
X149851100Y-105003600D03*
X147151100Y-105003600D03*
X149851100Y-105003600D03*
X147151100Y-105003600D03*
X149851100Y-105003600D03*
X147151100Y-105003600D03*
X149851100Y-105003600D03*
X147151100Y-105003600D03*
X149851100Y-105003600D03*
X147151100Y-105003600D03*
X149851100Y-105003600D03*
X147151100Y-105003600D03*
X149851100Y-105003600D03*
X147151100Y-105003600D03*
X149851100Y-105003600D03*
X147151100Y-105003600D03*
X149851100Y-105003600D03*
X147151100Y-105003600D03*
X149851100Y-105003600D03*
X147151100Y-105003600D03*
X149851100Y-105003600D03*
X147151100Y-105003600D03*
X149851100Y-105003600D03*
X147151100Y-105003600D03*
X149851100Y-105003600D03*
X147151100Y-105003600D03*
X149851100Y-105003600D03*
X147151100Y-105003600D03*
X149851100Y-105003600D03*
X147151100Y-105003600D03*
X149851100Y-105003600D03*
X147151100Y-105003600D03*
X149851100Y-105003600D03*
X147151100Y-105003600D03*
X149851100Y-105003600D03*
X147151100Y-105003600D03*
X149851100Y-105003600D03*
X147151100Y-105003600D03*
X149851100Y-105003600D03*
X147151100Y-105003600D03*
X149851100Y-105003600D03*
X147151100Y-105003600D03*
X149851100Y-105003600D03*
X147151100Y-105003600D03*
X149851100Y-105003600D03*
X147151100Y-105003600D03*
X149851100Y-105003600D03*
X147151100Y-105003600D03*
X149851100Y-105003600D03*
X147151100Y-105003600D03*
X149851100Y-105003600D03*
X147151100Y-105003600D03*
X149851100Y-105003600D03*
X147151100Y-105003600D03*
X149851100Y-105003600D03*
X147151100Y-105003600D03*
X149851100Y-105003600D03*
X147151100Y-105003600D03*
X149851100Y-105003600D03*
D44*
X181400000Y-145800000D03*
X181400000Y-148300000D03*
X181400000Y-150800000D03*
D45*
X186400000Y-147300000D03*
D44*
X191400000Y-145800000D03*
X191400000Y-148160000D03*
X191400000Y-150800000D03*
X161800000Y-150800000D03*
X161800000Y-153300000D03*
X161800000Y-155800000D03*
D45*
X166800000Y-152300000D03*
D44*
X171800000Y-150800000D03*
X171800000Y-153160000D03*
X171800000Y-155800000D03*
X160400000Y-167300000D03*
X160400000Y-169800000D03*
X160400000Y-172300000D03*
D45*
X165400000Y-168800000D03*
D44*
X170400000Y-167300000D03*
X170400000Y-169660000D03*
X170400000Y-172300000D03*
X205700000Y-148000000D03*
X205700000Y-150500000D03*
X205700000Y-153000000D03*
D45*
X210700000Y-149500000D03*
D44*
X215700000Y-148000000D03*
X215700000Y-150360000D03*
X215700000Y-153000000D03*
D46*
X131520000Y-80700000D03*
X131520000Y-79000000D03*
X131520000Y-75600000D03*
D47*
X140680000Y-77300000D03*
D46*
X131520000Y-77300000D03*
X131520000Y-73900000D03*
D48*
X202850000Y-53600000D03*
X202850000Y-54600000D03*
X202850000Y-55600000D03*
X202850000Y-56600000D03*
X202850000Y-57600000D03*
X202850000Y-58600000D03*
X202850000Y-59600000D03*
X202850000Y-60600000D03*
X202850000Y-61600000D03*
X202850000Y-62600000D03*
X202850000Y-63600000D03*
X202850000Y-64600000D03*
X202850000Y-65600000D03*
X202850000Y-66600000D03*
X202850000Y-67600000D03*
D49*
X206900000Y-57900000D03*
D50*
X205400000Y-70000000D03*
X206400000Y-70000000D03*
X207400000Y-70000000D03*
X208400000Y-70000000D03*
X209400000Y-70000000D03*
X210400000Y-70000000D03*
X211400000Y-70000000D03*
X212400000Y-70000000D03*
X213400000Y-70000000D03*
X214400000Y-70000000D03*
X215400000Y-70000000D03*
X216400000Y-70000000D03*
D49*
X206900000Y-61500000D03*
X206900000Y-63300000D03*
X209100000Y-65100000D03*
D48*
X218950000Y-67600000D03*
X218950000Y-66600000D03*
X218950000Y-65600000D03*
X218950000Y-64600000D03*
X218950000Y-63600000D03*
X218950000Y-62600000D03*
X218950000Y-61600000D03*
X218950000Y-60600000D03*
X218950000Y-59600000D03*
X218950000Y-58600000D03*
X218950000Y-57600000D03*
X218950000Y-56600000D03*
X218950000Y-55600000D03*
X218950000Y-54600000D03*
X218950000Y-53600000D03*
D49*
X210900000Y-65100000D03*
D50*
X216400000Y-51200000D03*
X215400000Y-51200000D03*
X214400000Y-51200000D03*
X213400000Y-51200000D03*
X212400000Y-51200000D03*
X211400000Y-51200000D03*
X210400000Y-51200000D03*
X209400000Y-51200000D03*
X208400000Y-51200000D03*
X207400000Y-51200000D03*
X206400000Y-51200000D03*
X205400000Y-51200000D03*
D49*
X214900000Y-57900000D03*
X212700000Y-56100000D03*
X210900000Y-56100000D03*
X209100000Y-56100000D03*
X212700000Y-65100000D03*
X206900000Y-59700000D03*
X214900000Y-59700000D03*
X214900000Y-61500000D03*
X214900000Y-63300000D03*
D51*
X144850000Y-114350000D03*
X144850000Y-115300000D03*
X144850000Y-116250000D03*
X147550000Y-116250000D03*
X147550000Y-114350000D03*
D36*
X124300000Y-126700000D03*
X138000000Y-126700000D03*
X135500000Y-131900000D03*
D52*
X33450000Y-172300000D03*
X33450000Y-172700000D03*
X33450000Y-173100000D03*
X33450000Y-173500000D03*
X33450000Y-173900000D03*
X33450000Y-174300000D03*
X33450000Y-174700000D03*
D53*
X34200000Y-175450000D03*
X34600000Y-175450000D03*
X35000000Y-175450000D03*
X35400000Y-175450000D03*
X35800000Y-175450000D03*
X36200000Y-175450000D03*
X36600000Y-175450000D03*
D52*
X37350000Y-174700000D03*
X37350000Y-174300000D03*
X37350000Y-173900000D03*
X37350000Y-173500000D03*
X37350000Y-173100000D03*
X37350000Y-172700000D03*
X37350000Y-172300000D03*
D53*
X36600000Y-171550000D03*
X36200000Y-171550000D03*
X35800000Y-171550000D03*
X35400000Y-171550000D03*
X35000000Y-171550000D03*
X34600000Y-171550000D03*
X34200000Y-171550000D03*
D54*
X36000000Y-174100000D03*
X36000000Y-172900000D03*
X34800000Y-174100000D03*
X34800000Y-172900000D03*
D55*
X160850000Y-37000000D03*
D56*
X154550000Y-37000000D03*
X154550000Y-39300000D03*
X154550000Y-34700000D03*
D57*
X235000000Y-134750000D03*
X235000000Y-135250000D03*
X235000000Y-135750000D03*
X235000000Y-136250000D03*
X235000000Y-136750000D03*
X235000000Y-137250000D03*
X235000000Y-137750000D03*
X235000000Y-138250000D03*
X235000000Y-138750000D03*
X235000000Y-139250000D03*
X235000000Y-139750000D03*
X235000000Y-140250000D03*
X235000000Y-140750000D03*
X235000000Y-141250000D03*
X235000000Y-141750000D03*
X235000000Y-142250000D03*
D58*
X236950000Y-144200000D03*
X237450000Y-144200000D03*
X237950000Y-144200000D03*
X238450000Y-144200000D03*
X238950000Y-144200000D03*
X239450000Y-144200000D03*
X239950000Y-144200000D03*
X240450000Y-144200000D03*
X240950000Y-144200000D03*
X241450000Y-144200000D03*
X241950000Y-144200000D03*
X242450000Y-144200000D03*
X242950000Y-144200000D03*
X243450000Y-144200000D03*
X243950000Y-144200000D03*
X244450000Y-144200000D03*
D57*
X246400000Y-142250000D03*
X246400000Y-141750000D03*
X246400000Y-141250000D03*
X246400000Y-140750000D03*
X246400000Y-140250000D03*
X246400000Y-139750000D03*
X246400000Y-139250000D03*
X246400000Y-138750000D03*
X246400000Y-138250000D03*
X246400000Y-137750000D03*
X246400000Y-137250000D03*
X246400000Y-136750000D03*
X246400000Y-136250000D03*
X246400000Y-135750000D03*
X246400000Y-135250000D03*
X246400000Y-134750000D03*
D58*
X244450000Y-132800000D03*
X243950000Y-132800000D03*
X243450000Y-132800000D03*
X242950000Y-132800000D03*
X242450000Y-132800000D03*
X241950000Y-132800000D03*
X241450000Y-132800000D03*
X240950000Y-132800000D03*
X240450000Y-132800000D03*
X239950000Y-132800000D03*
X239450000Y-132800000D03*
X238950000Y-132800000D03*
X238450000Y-132800000D03*
X237950000Y-132800000D03*
X237450000Y-132800000D03*
X236950000Y-132800000D03*
D59*
X26495000Y-50260000D03*
X26495000Y-55340000D03*
X27765000Y-50260000D03*
X27765000Y-55340000D03*
X29035000Y-50260000D03*
X29035000Y-55340000D03*
X30305000Y-50260000D03*
X30305000Y-55340000D03*
D21*
X205800000Y-90560000D03*
X209800000Y-90560000D03*
X209800000Y-95640000D03*
X205800000Y-95640000D03*
D60*
X207800000Y-93100000D03*
M02*
